<svg width="64" height="64" viewBox="0 0 64 64" fill="none" xmlns="http://www.w3.org/2000/svg">
<path d="M35.297 25.4891C34.6237 25.4891 34.0772 24.9426 34.0772 24.2693V22.4396H29.198V24.2693C29.198 24.9426 28.6515 25.4891 27.9782 25.4891C27.3049 25.4891 26.7584 24.9426 26.7584 24.2693V22.4396C26.7584 21.0942 27.8526 20 29.198 20H34.0772C35.4226 20 36.5168 21.0942 36.5168 22.4396V24.2693C36.5168 24.9426 35.9703 25.4891 35.297 25.4891Z" fill="black"/>
<path fill-rule="evenodd" clip-rule="evenodd" d="M20.3544 23.6594H42.9207C44.7748 23.6594 46.2751 25.1598 46.2751 27.0139V30.9782H38.9564V29.4535C38.9564 28.9533 38.5416 28.5386 38.0415 28.5386C37.5414 28.5386 37.1267 28.9533 37.1267 29.4535V30.9782H26.1485V29.4535C26.1485 28.9533 25.7338 28.5386 25.2336 28.5386C24.7335 28.5386 24.3188 28.9533 24.3188 29.4535V30.9782H17V27.0139C17 25.1598 18.5004 23.6594 20.3544 23.6594ZM38.9564 33.9301V32.8079H46.2751V41.0415C46.2751 42.8956 44.7748 44.396 42.9207 44.396H20.3544C18.5004 44.396 17 42.8956 17 41.0415V32.8079H24.3188V33.9301C24.3188 34.4302 24.7335 34.845 25.2336 34.845C25.7338 34.845 26.1485 34.4302 26.1485 33.9301V32.8079H37.1267V33.9301C37.1267 34.4302 37.5414 34.845 38.0415 34.845C38.5416 34.845 38.9564 34.4302 38.9564 33.9301Z" fill="black"/>
</svg>
