<svg width="64" height="64" viewBox="0 0 64 64" fill="none" xmlns="http://www.w3.org/2000/svg">
<path fill-rule="evenodd" clip-rule="evenodd" d="M38.0138 22.8246L43.5968 17.2416C44.1138 16.7246 44.9999 17.0926 44.9998 17.8228V44.1781C44.9998 44.632 44.6319 45 44.178 45H17.8226C17.0915 45 16.7252 44.1132 17.2415 43.5969L22.8243 38.0136L25.1314 40.3207C25.4524 40.6417 25.9728 40.6417 26.2938 40.3207C26.6147 39.9998 26.6147 39.4794 26.2938 39.1584L23.9866 36.8513L26.3311 34.5069L28.6382 36.8141C28.9592 37.135 29.4796 37.135 29.8005 36.8141C30.1215 36.4931 30.1215 35.9727 29.8005 35.6517L27.4934 33.3446L29.8379 31.0002L32.145 33.3074C32.466 33.6283 32.9864 33.6283 33.3073 33.3074C33.6283 32.9864 33.6283 32.466 33.3073 32.145L31.0002 29.8379L33.3447 27.4935L35.6518 29.8007C35.9728 30.1217 36.4932 30.1216 36.8141 29.8007C37.1351 29.4797 37.1351 28.9593 36.8141 28.6384L34.507 26.3313L36.8514 23.9868L39.1586 26.294C39.4796 26.615 40 26.6149 40.3209 26.294C40.6419 25.973 40.6419 25.4527 40.3209 25.1317L38.0138 22.8246ZM38.8631 39.6851C39.317 39.6851 39.685 39.3171 39.685 38.8632V31.4114C39.685 30.6802 38.7983 30.3139 38.282 30.8302L30.8302 38.282C30.3128 38.7994 30.6816 39.6851 31.4113 39.6851H38.8631Z" fill="black"/>
</svg>
