<svg width="64" height="64" viewBox="0 0 64 64" fill="none" xmlns="http://www.w3.org/2000/svg">
<path fill-rule="evenodd" clip-rule="evenodd" d="M32.7698 18.4342L45.9504 30.4442C46.4138 30.8666 46.5669 31.5172 46.3408 32.1018C46.1143 32.6864 45.5628 33.0642 44.9359 33.0642H44.1685L32.7161 22.6529L32.5964 22.5609C32.2619 22.3455 31.8175 22.3708 31.5084 22.6396L19.5202 33.0642H18.5747C17.9477 33.0642 17.3963 32.6865 17.1699 32.1018C16.9435 31.5172 17.0965 30.8666 17.56 30.4443L30.7406 18.4341C31.3189 17.907 32.1913 17.9069 32.7698 18.4342ZM20.6799 34.4644V45.0973C20.6799 45.5744 21.0667 45.9613 21.5438 45.9613H28.7684C29.2454 45.9613 29.6323 45.5745 29.6323 45.0973V37.7912H33.8783V45.0974C33.8783 45.5745 34.2651 45.9613 34.7422 45.9613H41.9665C42.4435 45.9613 42.8304 45.5745 42.8304 45.0974V34.3039L32.0917 24.5405L20.6799 34.4644Z" fill="black"/>
<path d="M42.6048 19.7632H36.8029L43.4687 25.8243V20.6271C43.4687 20.15 43.0819 19.7632 42.6048 19.7632Z" fill="black"/>
</svg>
