<svg width="64" height="64" viewBox="0 0 64 64" fill="none" xmlns="http://www.w3.org/2000/svg">
<path d="M33.9737 27.758L37.2473 22.0878L30.4681 18.1738L20.415 35.586L33.9737 27.758Z" fill="black"/>
<path d="M39.4469 35.5314L44.7324 32.4798L40.8186 25.7007L23.7911 35.5314H39.4469Z" fill="black"/>
<path d="M25.828 17H18V36.4878L25.828 22.9293V17Z" fill="black"/>
<path d="M27.4686 37.172H46V45H27.4686V37.172Z" fill="black"/>
<path d="M21.3741 41.086C21.3741 41.3836 21.6164 41.6258 21.914 41.6258C22.2115 41.6258 22.4536 41.3836 22.4536 41.086C22.4536 40.7884 22.2115 40.5464 21.914 40.5464C21.6164 40.5464 21.3741 40.7884 21.3741 41.086Z" fill="black"/>
<path fill-rule="evenodd" clip-rule="evenodd" d="M21.914 45C19.7558 45 18 43.2442 18 41.086C18 38.9278 19.7558 37.172 21.914 37.172H25.828V45H21.914ZM21.914 43.2664C23.1163 43.2664 24.0942 42.2883 24.0942 41.086C24.0942 39.8837 23.1163 38.9058 21.914 38.9058C20.7117 38.9058 19.7336 39.8837 19.7336 41.086C19.7336 42.2883 20.7117 43.2664 21.914 43.2664Z" fill="black"/>
</svg>
