<svg width="64" height="64" viewBox="0 0 64 64" fill="none" xmlns="http://www.w3.org/2000/svg">
<path d="M26.4595 37.4717C25.7191 37.0471 25.2188 36.2492 25.2188 35.3359C25.2188 31.5666 28.2853 28.5 32.0547 28.5H34.8717L35.0044 26.3125H19.0425L20.189 45.2292C20.2153 45.6623 20.5739 46 21.0078 46H26.0412C25.5251 45.3141 25.2188 44.4617 25.2188 43.5391C25.2188 42.4754 25.8972 41.5673 26.844 41.2245C26.5084 40.7098 26.3125 40.0963 26.3125 39.4375C26.3125 38.778 26.5088 38.1639 26.8451 37.6488C26.5776 37.5886 26.4291 37.5294 26.4595 37.4717Z" fill="black"/>
<path d="M27.0226 24.6721C27.0232 24.6721 27.0239 24.6719 27.0245 24.6719H35.2266C35.6797 24.6719 36.0469 24.3047 36.0469 23.8516C36.0469 23.3985 35.6797 23.0312 35.2266 23.0312H28.5378L30.749 19.6406H33.5859C34.039 19.6406 34.4062 19.2734 34.4062 18.8203C34.4062 18.3672 34.039 18 33.5859 18H30.3047C30.0274 18 29.7689 18.1399 29.6177 18.3721L26.5791 23.0312H18.8203C18.3672 23.0312 18 23.3985 18 23.8516C18 24.3047 18.3672 24.6719 18.8203 24.6719H27.0196C27.0207 24.6719 27.0217 24.6721 27.0226 24.6721Z" fill="black"/>
<path d="M26.8594 35.3359C26.8594 35.789 27.2266 36.1562 27.6797 36.1562H45.1797C45.6328 36.1562 46 35.789 46 35.3359C46 32.4713 43.6694 30.1406 40.8047 30.1406H32.0547C29.19 30.1406 26.8594 32.4713 26.8594 35.3359Z" fill="black"/>
<path d="M29.5938 37.7969C28.6876 37.7969 27.9531 38.5313 27.9531 39.4375C27.9531 40.3437 28.6876 41.0781 29.5938 41.0781H43.2656C44.1718 41.0781 44.9062 40.3437 44.9062 39.4375C44.9062 38.5313 44.1718 37.7969 43.2656 37.7969H29.5938Z" fill="black"/>
<path d="M45.1797 42.7188H27.6797C27.2266 42.7188 26.8594 43.086 26.8594 43.5391C26.8594 44.896 27.9634 46 29.3203 46H43.5391C44.896 46 46 44.896 46 43.5391C46 43.086 45.6328 42.7188 45.1797 42.7188Z" fill="black"/>
</svg>
