<svg width="64" height="64" viewBox="0 0 64 64" fill="none" xmlns="http://www.w3.org/2000/svg">
<path fill-rule="evenodd" clip-rule="evenodd" d="M40.8574 35.7725L45.0005 42.8931C45.2879 43.3871 45.0558 43.8117 44.485 43.8368L41.6897 43.9586C41.1186 43.9835 40.4029 44.4001 40.0989 44.884L38.6114 47.2539C38.3075 47.738 37.8237 47.7297 37.5363 47.2356C37.5363 47.2356 33.3671 40.0691 33.366 40.0669C33.2969 39.9261 33.2024 39.9939 33.1635 40.027C32.6862 40.4342 32.2037 40.7994 31.6827 40.7994C31.1513 40.7994 30.5147 40.4115 30.058 40.0226C30.0177 39.9884 29.9336 39.9683 29.8498 40.0662C29.8481 40.0682 25.6743 47.2742 25.6743 47.2742C25.3877 47.7688 24.904 47.7779 24.5991 47.2944L23.1074 44.9273C22.8026 44.4438 22.0861 44.0287 21.515 44.0047L18.7195 43.8881C18.1484 43.8641 17.9155 43.44 18.2022 42.9453L22.254 35.9524C22.3519 35.8098 22.2074 35.7244 22.131 35.7015C21.4765 35.5056 20.8211 35.3017 20.5323 34.8052C20.2376 34.2985 20.3962 33.6107 20.5527 32.9317C20.678 32.3882 20.802 31.8503 20.6913 31.4154C20.5747 30.9574 20.1992 30.5279 19.8246 30.0993C19.3758 29.586 18.9282 29.0741 18.9282 28.5161C18.9282 27.8768 19.4216 27.282 19.8969 26.7091C20.2655 26.2647 20.6233 25.8335 20.7315 25.4047C20.8414 24.9694 20.7163 24.4317 20.59 23.8885C20.4322 23.2098 20.2723 22.5224 20.5661 22.0154C20.8599 21.5083 21.5358 21.3049 22.2031 21.1042C22.7372 20.9435 23.2658 20.7845 23.5886 20.4728C23.9263 20.1467 24.1102 19.608 24.2936 19.0707C24.5161 18.4191 24.7378 17.7696 25.2322 17.5041C25.7276 17.2379 26.3936 17.4098 27.0599 17.5817C27.6115 17.7241 28.1633 17.8665 28.6188 17.7606C28.6967 17.7424 28.8987 17.5806 29.1719 17.3618C29.821 16.8418 30.8719 16 31.6142 16C32.1804 16 32.7019 16.4445 33.2203 16.8864C33.6535 17.2557 34.0846 17.6231 34.5376 17.7275C34.9934 17.8325 35.545 17.6891 36.0964 17.5458C36.7623 17.3726 37.4279 17.1996 37.9238 17.4647C38.4186 17.7293 38.6415 18.3783 38.8652 19.0295C39.0496 19.5664 39.2345 20.1048 39.5728 20.4303C39.8962 20.7415 40.4251 20.8996 40.9595 21.0593C41.6271 21.2588 42.3034 21.4609 42.5981 21.9674C42.8928 22.4739 42.7342 23.1617 42.5777 23.8407C42.4524 24.3842 42.3283 24.9221 42.439 25.3571C42.554 25.8091 42.9339 26.2945 43.316 26.7829C43.7803 27.3762 44.2479 27.9739 44.2479 28.521C44.2479 29.0787 43.8017 29.5913 43.3543 30.1052C42.9806 30.5346 42.606 30.965 42.4901 31.4234C42.3802 31.8585 42.5052 32.3961 42.6315 32.9393C42.7893 33.6181 42.9491 34.3056 42.6554 34.8127C42.3619 35.3196 41.6864 35.5228 41.0192 35.7236C40.9652 35.7399 40.9111 35.7561 40.8574 35.7725ZM26.5995 36.2293C29.4333 38.0167 33.1433 38.2094 36.2342 36.4112C40.6594 33.8368 42.1649 28.1421 39.5904 23.7168C38.7481 22.269 37.5717 21.1339 36.2151 20.3517C36.1827 20.3333 36.1502 20.315 36.1176 20.2969C36.1113 20.2934 36.105 20.2898 36.0987 20.2863C36.0821 20.2769 36.0655 20.2676 36.0488 20.2585C31.6515 17.8636 26.1018 19.4014 23.5772 23.7594C21.081 28.0676 22.4472 33.5696 26.5995 36.2293Z" fill="black"/>
<path fill-rule="evenodd" clip-rule="evenodd" d="M35.5066 21.6424C35.5135 21.6462 35.5205 21.6501 35.5274 21.6541C39.2549 23.8136 40.5302 28.6025 38.3709 32.33C36.2115 36.0573 31.4225 37.333 27.695 35.1735C27.6031 35.1203 27.5132 35.065 27.4243 35.0087C26.3793 34.3578 25.4735 33.4507 24.8124 32.3145C22.6462 28.5911 23.9132 23.7995 27.6367 21.6333C30.1459 20.1735 33.1398 20.2729 35.4887 21.6323C35.4946 21.6357 35.5006 21.6391 35.5066 21.6424ZM35.1547 29.0198L36.4599 27.7476C36.8641 27.3537 36.7378 26.9648 36.1792 26.8836L34.3756 26.6215C33.8169 26.5403 33.1555 26.0597 32.9056 25.5535L32.099 23.9192C31.8492 23.413 31.4403 23.413 31.1905 23.9192L30.3839 25.5535C30.1341 26.0597 29.4725 26.5403 28.9139 26.6215L27.1103 26.8836C26.5517 26.9648 26.4253 27.3537 26.8296 27.7476L28.1347 29.0198C28.5389 29.4138 28.7916 30.1915 28.6961 30.7479L28.388 32.5442C28.2926 33.1006 28.6234 33.3408 29.123 33.0782L30.7362 32.23C31.2359 31.9673 32.0535 31.9673 32.5532 32.23L34.1665 33.0782C34.6662 33.3408 34.9969 33.1006 34.9014 32.5442L34.5933 30.7479C34.4978 30.1915 34.7505 29.4138 35.1547 29.0198Z" fill="black"/>
</svg>
