<svg width="314" height="615" viewBox="0 0 314 615" fill="none" xmlns="http://www.w3.org/2000/svg">
<path d="M85.816 176.131V169.019L76.4188 167.241C68.3727 165.481 66.3009 164.219 66.2602 149.162L66.2596 27.5532C66.2596 12.0605 68.2915 10.7906 76.4188 9.01279L85.816 7.23494V0.123535H0.733154V7.23494L10.1304 9.01279C18.0037 10.7906 20.0355 12.0605 20.0355 27.5532V148.701C20.0355 164.194 18.0037 165.464 10.1304 167.241L0.733154 169.019V176.131H85.816Z" fill="#2D2D32"/>
<path d="M167.721 176.131V169.273L161.626 167.75C154.09 165.74 153.262 165.221 153.245 153.416L153.245 67.682C158.832 66.4121 167.975 64.3803 176.865 64.3803C188.802 64.3803 194.389 69.2059 194.389 84.6986V153.019C194.389 164.956 193.627 165.718 186.008 167.75L179.912 169.273V176.131H250.772V169.273L244.169 167.496C236.134 165.487 235.05 164.223 235.026 153.396L235.026 74.7934C235.026 51.9353 223.343 40.7603 201.754 40.7603C183.214 40.7603 166.451 49.1415 152.991 58.7927H151.975L152.483 42.5381L149.689 40.7603L96.0994 46.8557V51.9353L104.481 57.5228C111.592 62.3484 112.862 63.1104 112.862 74.0314V153.019C112.862 163.94 111.846 165.21 103.465 167.496L96.8613 169.273V176.131H167.721Z" fill="url(#paint0_linear)"/>
<path fill-rule="evenodd" clip-rule="evenodd" d="M150.835 316.944L98.261 324.309L95.4672 322.277L95.9752 307.8H94.9593C84.0382 317.198 69.8154 324.309 52.0369 324.309C26.893 324.309 2.25708 306.023 2.25708 259.798C2.25708 206.971 36.2902 185.891 75.9109 185.891C82.7683 185.891 89.8797 187.161 95.2132 188.684C95.2132 188.684 94.7617 180.33 94.7101 171.712L94.7065 170.928C94.7057 170.667 94.7053 170.405 94.7053 170.144L94.7048 161.6C94.6747 150.055 93.3577 149.025 86.8319 145.762L76.4188 140.174V134.333L133.31 129.253L135.85 131.285C135.85 131.285 135.088 143.222 135.088 161.001L135.088 291.199C135.106 303.263 135.935 304.787 143.469 307.8L150.835 310.848V316.944ZM43.9096 251.417C43.9096 291.292 54.0687 304.245 73.3711 304.245C81.8032 304.245 87.9038 301.58 92.0775 299.757C93.058 299.329 93.9322 298.947 94.7053 298.657V206.717C90.3876 201.383 84.2922 196.05 74.895 196.05C56.6085 196.05 43.9096 209.511 43.9096 251.417Z" fill="url(#paint1_radial)"/>
<path d="M95.6092 466.392V459.535L89.0057 457.757C80.1165 455.471 79.1005 454.709 79.1005 443.28V306.132C79.1005 289.115 80.1165 276.416 80.1165 276.416L77.3227 274.384L20.9395 279.464V285.305L30.3367 289.877C37.702 293.687 38.718 294.703 38.718 307.148V443.28C38.718 454.201 37.702 455.471 28.8128 457.757L22.2093 459.535V466.392H95.6092Z" fill="#2D2D32"/>
<path d="M260.931 324.309L313.505 316.944V310.848L306.14 307.8C298.52 304.753 297.758 303.229 297.758 290.784V188.176L294.711 185.891L240.613 191.478V196.812L249.248 201.891C256.614 205.955 257.376 207.225 257.376 217.892V296.371C256.919 296.524 256.447 296.682 255.962 296.844L254.975 297.173C249.113 299.117 241.502 301.451 233.502 301.451C222.073 301.451 216.231 295.609 216.231 280.625V188.176L213.183 185.891L158.832 191.478V196.812L167.721 201.891C175.087 206.209 175.595 207.225 175.595 217.892V290.53C175.595 312.88 188.802 324.309 208.866 324.309C228.422 324.309 243.915 315.166 257.376 305.261H258.646L258.138 322.277L260.931 324.309Z" fill="#2D2D32"/>
<path fill-rule="evenodd" clip-rule="evenodd" d="M155.373 591.458C146.484 601.363 127.181 614.57 101.53 614.57C57.3374 614.57 35.2412 588.156 35.2412 544.98C35.2412 500.788 68.0045 476.152 101.53 476.152C136.579 476.152 158.421 493.676 159.183 539.647H75.3698C76.1318 581.299 91.8784 592.728 118.038 592.728C133.785 592.728 145.722 588.156 155.373 583.077V591.458ZM99.4978 485.803C86.5449 485.803 76.3857 497.994 75.3698 529.995L118.8 527.71C118.8 496.978 114.737 485.803 99.4978 485.803Z" fill="url(#paint2_linear)"/>
<path fill-rule="evenodd" clip-rule="evenodd" d="M156.434 519.981C206.468 519.981 231.104 495.092 231.104 465.884C231.104 439.216 212.309 431.597 188.181 431.597H143.735C134.592 431.597 131.036 428.041 131.036 422.962C131.036 418.644 134.084 414.072 136.624 411.787C144.243 414.58 153.386 416.104 162.784 416.104C192.499 416.104 217.389 401.119 217.389 372.166C217.389 358.959 209.516 348.8 199.611 342.958V342.196C205.706 339.149 211.294 338.641 213.579 343.466C216.119 349.054 218.659 352.61 226.532 352.61C235.675 352.61 238.977 346.006 238.977 338.133C238.977 328.99 232.374 324.418 222.977 324.418C212.055 324.418 201.896 330.005 194.023 337.117C184.626 333.053 174.975 331.021 162.784 331.021C133.068 331.021 108.178 346.514 108.178 375.468C108.178 390.706 116.306 401.881 128.497 407.977V408.993C120.115 415.088 108.94 424.993 108.94 439.216C108.94 451.407 116.813 460.55 130.782 463.598V464.614C110.21 469.186 98.781 478.329 98.781 490.266C98.781 509.06 118.845 519.981 156.434 519.981ZM162.784 406.199C151.101 406.199 145.767 399.088 145.767 372.674C145.767 348.292 150.847 340.673 162.784 340.673C174.467 340.673 179.8 348.292 179.8 374.706C179.8 399.088 174.721 406.199 162.784 406.199ZM129.512 485.44C129.512 500.425 138.402 510.076 161.768 510.076C191.229 510.076 204.944 499.917 204.944 483.409C204.944 472.234 198.341 466.646 182.594 466.646H139.926C135.354 468.932 129.512 475.281 129.512 485.44Z" fill="#2D2D32"/>
<linearGradient id="paint0_linear" x1="123.493" y1="52.3966" x2="66.4046" y2="146.951" gradientUnits="userSpaceOnUse">
<stop stop-color="#2D2D32"/>
<stop offset="0.333048" stop-color="#2D2D32"/>
<stop offset="1" stop-color="#595961"/>
</linearGradient>
<radialGradient id="paint1_radial" cx="0" cy="0" r="1" gradientUnits="userSpaceOnUse" gradientTransform="translate(42.2473 289.402) rotate(120.738) scale(112.402 101.801)">
<stop stop-color="#595961"/>
<stop offset="0.5885" stop-color="#2D2D32"/>
<stop offset="1" stop-color="#2D2D32"/>
</radialGradient>
<linearGradient id="paint2_linear" x1="82.8055" y1="459.223" x2="2.8597" y2="555.64" gradientUnits="userSpaceOnUse">
<stop stop-color="#595961"/>
<stop offset="0.595429" stop-color="#2D2D32"/>
<stop offset="1" stop-color="#2D2D32"/>
</linearGradient>
</svg>
