<svg width="64" height="64" viewBox="0 0 64 64" fill="none" xmlns="http://www.w3.org/2000/svg">
<path d="M45.7167 28.8919C46.0853 28.5233 46.0853 27.9257 45.7167 27.5571L44.3003 26.1407C43.9799 25.8204 43.477 25.7728 43.1024 26.0274L40.1242 28.0516L42.1361 25.0533C42.3873 24.6788 42.3386 24.1789 42.0197 23.86L38.9472 20.7876C38.6636 20.5039 38.2317 20.4305 37.8704 20.6046L37.3391 20.8604L37.5935 20.296C37.7548 19.9383 37.6779 19.5182 37.4005 19.2407L36.436 18.2764C36.0675 17.9079 35.4699 17.9079 35.1013 18.2764L27.6099 25.7678L38.2253 36.3832L45.7167 28.8919Z" fill="black"/>
<path fill-rule="evenodd" clip-rule="evenodd" d="M24.0464 29.3314L26.215 27.1627L36.8305 37.7781L34.6618 39.9468C34.2932 40.3153 33.6956 40.3153 33.327 39.9468L31.2699 37.8896C30.8745 37.4943 30.3276 37.303 29.7686 37.364C29.2115 37.4252 28.7192 37.7311 28.4182 38.2033C24.5653 44.2477 24.0016 44.8114 23.8164 44.9966C22.489 46.3241 20.3268 46.3267 18.9966 44.9966C17.6678 43.6677 17.6678 41.5056 18.9966 40.1768C19.1817 39.9916 19.7452 39.4281 25.7899 35.5749C26.2633 35.2732 26.5698 34.7807 26.6309 34.2238C26.6921 33.6665 26.4999 33.1195 26.1035 32.7232L24.0464 30.6661C23.8693 30.4891 23.7699 30.249 23.7699 29.9987C23.7699 29.7484 23.8694 29.5084 24.0464 29.3314ZM20.5211 43.4721C21.042 43.9931 21.8867 43.9931 22.4077 43.4721C22.9286 42.9511 22.9286 42.1065 22.4077 41.5856C21.8867 41.0646 21.0421 41.0646 20.5211 41.5856C20.0001 42.1065 20.0001 42.9511 20.5211 43.4721Z" fill="black"/>
</svg>
