<svg width="64" height="64" viewBox="0 0 64 64" fill="none" xmlns="http://www.w3.org/2000/svg">
<rect x="26.4" y="26.4" width="11.2" height="11.2" fill="black"/>
<path fill-rule="evenodd" clip-rule="evenodd" d="M46.5 32C46.5 32.87 45.92 33.45 45.05 33.45H43.6V36.35H45.05C45.92 36.35 46.5 37.075 46.5 37.8C46.5 38.67 45.92 39.25 45.05 39.25H43.6V40.7C43.6 42.295 42.295 43.6 40.7 43.6H39.25V45.05C39.25 45.92 38.525 46.5 37.8 46.5C36.93 46.5 36.35 45.775 36.35 45.05V43.6H33.45V45.05C33.45 45.92 32.87 46.5 32 46.5C31.13 46.5 30.55 45.775 30.55 45.05V43.6H27.65V45.05C27.65 45.92 27.07 46.5 26.2 46.5C25.33 46.5 24.75 45.775 24.75 45.05V43.6H23.3C21.705 43.6 20.4 42.295 20.4 40.7V39.25H18.95C18.08 39.25 17.5 38.525 17.5 37.8C17.5 36.93 18.08 36.35 18.95 36.35H20.4V33.45H18.95C18.08 33.45 17.5 32.725 17.5 32C17.5 31.13 18.08 30.55 18.95 30.55H20.4V27.65H18.95C18.08 27.65 17.5 26.925 17.5 26.2C17.5 25.33 18.08 24.75 18.95 24.75H20.4V23.3C20.4 21.705 21.705 20.4 23.3 20.4H24.75V18.95C24.75 18.08 25.33 17.5 26.2 17.5C27.07 17.5 27.65 18.225 27.65 18.95V20.4H30.55V18.95C30.55 18.08 31.13 17.5 32 17.5C32.87 17.5 33.45 18.225 33.45 18.95V20.4H36.35V18.95C36.35 18.08 37.075 17.5 37.8 17.5C38.67 17.5 39.25 18.225 39.25 18.95V20.4H40.7C42.295 20.4 43.6 21.705 43.6 23.3V24.75H45.05C45.92 24.75 46.5 25.475 46.5 26.2C46.5 27.07 45.92 27.65 45.05 27.65H43.6V30.55H45.05C45.92 30.55 46.5 31.275 46.5 32ZM40.7 23.3H23.3V40.7H40.7V23.3Z" fill="black"/>
</svg>
