<svg width="64" height="64" viewBox="0 0 64 64" fill="none" xmlns="http://www.w3.org/2000/svg">
<path d="M47.4136 36.7996C45.3652 36.7996 43.4413 36.0094 41.9959 34.5742C40.5511 33.1399 39.7556 31.2295 39.7556 29.1949C39.7556 28.6373 39.3034 28.1854 38.7461 28.1854C38.1885 28.1854 37.7366 28.6373 37.7366 29.1949C37.7366 31.2295 36.9408 33.1399 35.4959 34.5742C34.0505 36.0094 32.1267 36.7996 30.0782 36.7996C29.5206 36.7996 29.0687 37.2515 29.0687 37.8091C29.0687 38.3667 29.5206 38.8186 30.0782 38.8186C34.3008 38.8186 37.7366 42.2402 37.7366 46.4457C37.7366 47.0033 38.1885 47.4552 38.7461 47.4552C39.3034 47.4552 39.7556 47.0033 39.7556 46.4457C39.7556 42.2402 43.191 38.8186 47.4136 38.8186C47.9712 38.8186 48.4231 38.3667 48.4231 37.8091C48.4231 37.2515 47.9712 36.7996 47.4136 36.7996Z" fill="black"/>
<path d="M28.8996 30.2817C26.2306 30.2817 24.0592 28.1263 24.0592 25.4767C24.0592 24.9764 23.6535 24.5704 23.1529 24.5704C22.6524 24.5704 22.2467 24.9764 22.2467 25.4767C22.2467 28.1263 20.0752 30.2817 17.4062 30.2817C16.9057 30.2817 16.5 30.6876 16.5 31.1879C16.5 31.6885 16.9057 32.0942 17.4062 32.0942C20.0752 32.0942 22.2467 34.2565 22.2467 36.9141C22.2467 37.4144 22.6524 37.8203 23.1529 37.8203C23.6535 37.8203 24.0592 37.4144 24.0592 36.9141C24.0592 34.2565 26.2306 32.0942 28.8996 32.0942C29.4001 32.0942 29.8058 31.6885 29.8058 31.1879C29.8058 30.6876 29.4001 30.2817 28.8996 30.2817Z" fill="black"/>
<path d="M29.3073 22.2626C31.2701 22.2626 32.8671 23.8473 32.8671 25.7951C32.8671 26.2954 33.2728 26.7013 33.7734 26.7013C34.2739 26.7013 34.6796 26.2954 34.6796 25.7951C34.6796 23.841 36.2766 22.2512 38.2395 22.2512C38.74 22.2512 39.1457 21.8453 39.1457 21.345C39.1457 20.8444 38.74 20.4387 38.2395 20.4387C36.2766 20.4387 34.6796 18.854 34.6796 16.9062C34.6796 16.4057 34.2739 16 33.7734 16C33.2728 16 32.8671 16.4057 32.8671 16.9062C32.8671 18.8604 31.2701 20.4501 29.3073 20.4501C28.8067 20.4501 28.401 20.8558 28.401 21.3563C28.401 21.8569 28.8067 22.2626 29.3073 22.2626Z" fill="black"/>
</svg>
