<svg width="146" height="123" viewBox="0 0 146 123" fill="none" xmlns="http://www.w3.org/2000/svg">
<path fill-rule="evenodd" clip-rule="evenodd" d="M44.8107 22.0992L47.493 26.2332C28.4424 32.6028 15.6646 44.8698 13.7549 46.7031L13.7548 46.7032L13.7547 46.7034C13.5926 46.859 13.5089 46.9394 13.5064 46.9344C-5.90103 64.7956 2.20906 84.7079 2.20906 84.7079C4.22549 89.3652 6.99873 93.4688 10.2541 97.0796C8.09883 99.3205 6.33666 100.738 5.45941 101.401C5.08073 101.685 4.9545 102.159 5.11229 102.601L8.6782 112.225C9.46669 107.48 11.4475 103.302 13.3245 100.215C32.0516 117.866 62.0723 122.103 62.0723 122.103C80.8801 124.122 69.9299 122.103 69.9299 122.103C39.8978 116.527 23.745 106.594 15.058 97.5949C16.3992 95.7288 17.4075 94.6679 17.4194 94.6798C38.1838 66.5627 66.648 32.8917 66.648 32.8917L60.1157 104.399C64.3128 101.023 70.4979 99.6974 70.4979 99.6974C98.6466 63.0284 129.951 33.2072 129.951 33.2072L117.044 82.278C112.153 98.0564 114.709 100.518 114.709 100.518C118.811 106.798 133.643 97.3306 133.643 97.3306C123.04 100.928 124.933 93.1335 124.933 93.1335L134.968 37.3727C137.146 26.3278 145.003 24.5922 145.003 24.5922C132.444 24.5291 123.576 35.0375 123.576 35.0375C107.325 52.6146 69.6459 94.3011 69.6459 94.3011L72.5491 37.3412C72.9278 27.9688 78.04 24.5607 78.04 24.5607C69.6459 25.1602 64.6284 31.156 64.6284 31.156L13.5379 93.3229C13.169 93.7865 12.8038 94.2302 12.444 94.6542C5.12238 85.674 4.9545 78.3019 4.9545 78.3019C4.16558 55.2654 38.0576 39.9604 38.0576 39.9604C63.1768 29.5782 72.2336 23.3615 72.2336 23.3615C77.188 20.7423 77.8507 17.8075 77.8507 17.8075L82.742 5.34259C84.6669 -1.18967 77.1564 0.104162 77.1564 0.104162L57.9699 2.94427C52.9208 3.67008 51.4376 6.3524 51.4376 6.3524L44.8107 16.2928C42.6333 19.5747 44.8107 22.0992 44.8107 22.0992ZM75.5155 8.97162C75.5155 8.97162 79.9334 8.78228 74.8212 13.3896C74.8212 13.3896 65.1333 20.5845 50.5225 25.0025L52.1634 19.8271C52.1634 19.8271 53.0155 18.3755 51.343 16.8924C51.343 16.8924 49.3233 14.5256 52.3843 12.8215C52.3843 12.8215 59.4215 9.19251 75.5155 8.97162ZM45.4734 76.1876L40.235 71.3594C39.3829 70.602 40.1088 70.0655 40.1403 70.0971L44.8738 64.5747C45.505 63.628 46.1045 64.3853 46.1045 64.3853L51.059 69.0242C52.0688 69.8446 51.2167 70.4442 51.2167 70.4442L46.2623 76.156C46.0414 76.3769 45.6943 76.4085 45.4734 76.1876Z" fill="white"/>
</svg>
