<svg width="35" height="25" viewBox="0 0 35 25" fill="none" xmlns="http://www.w3.org/2000/svg">
<mask id="path-1-inside-1" fill="white">
<path fill-rule="evenodd" clip-rule="evenodd" d="M0.347168 0.214844H34.5526V24.6473H0.347168V0.214844ZM29.9218 2.58544H4.97793L17.4499 9.78611L29.9218 2.58544ZM2.73191 4.33265V22.2767H32.1678V4.33265L17.4543 12.8275L17.4521 12.8314L17.4499 12.8301L17.4476 12.8314L17.4454 12.8275L2.73191 4.33265Z"/>
</mask>
<path fill-rule="evenodd" clip-rule="evenodd" d="M0.347168 0.214844H34.5526V24.6473H0.347168V0.214844ZM29.9218 2.58544H4.97793L17.4499 9.78611L29.9218 2.58544ZM2.73191 4.33265V22.2767H32.1678V4.33265L17.4543 12.8275L17.4521 12.8314L17.4499 12.8301L17.4476 12.8314L17.4454 12.8275L2.73191 4.33265Z" fill="#fff"/>
<path d="M34.5526 0.214844H35.7742V-1.00678H34.5526V0.214844ZM0.347168 0.214844V-1.00678H-0.874454V0.214844H0.347168ZM34.5526 24.6473V25.8689H35.7742V24.6473H34.5526ZM0.347168 24.6473H-0.874454V25.8689H0.347168V24.6473ZM29.9218 2.58544L30.5326 3.64339L34.481 1.36382H29.9218V2.58544ZM4.97793 2.58544V1.36382H0.418779L4.36712 3.64339L4.97793 2.58544ZM17.4499 9.78611L16.8391 10.8441L17.4499 11.1967L18.0607 10.8441L17.4499 9.78611ZM2.73191 4.33265L3.34272 3.2747L1.51029 2.21674V4.33265H2.73191ZM2.73191 22.2767H1.51029V23.4983H2.73191V22.2767ZM32.1678 22.2767V23.4983H33.3895V22.2767H32.1678ZM32.1678 4.33265H33.3895V2.21674L31.557 3.27469L32.1678 4.33265ZM17.4543 12.8275L16.8435 11.7695L16.5601 11.9332L16.3965 12.2165L17.4543 12.8275ZM17.4521 12.8314L16.8412 13.8893L17.899 14.5001L18.51 13.4423L17.4521 12.8314ZM17.4499 12.8301L18.0607 11.7721L17.4496 11.4193L16.8386 11.7724L17.4499 12.8301ZM17.4476 12.8314L16.3898 13.4423L17.0009 14.5005L18.0589 13.8891L17.4476 12.8314ZM17.4454 12.8275L18.5033 12.2165L18.3396 11.9332L18.0562 11.7695L17.4454 12.8275ZM34.5526 -1.00678H0.347168V1.43647H34.5526V-1.00678ZM35.7742 24.6473V0.214844H33.331V24.6473H35.7742ZM0.347168 25.8689H34.5526V23.4257H0.347168V25.8689ZM-0.874454 0.214844V24.6473H1.56879V0.214844H-0.874454ZM29.9218 1.36382H4.97793V3.80706H29.9218V1.36382ZM18.0607 8.72816L5.58874 1.52748L4.36712 3.64339L16.8391 10.8441L18.0607 8.72816ZM29.311 1.52748L16.8391 8.72816L18.0607 10.8441L30.5326 3.64339L29.311 1.52748ZM1.51029 4.33265V22.2767H3.95353V4.33265H1.51029ZM2.73191 23.4983H32.1678V21.0551H2.73191V23.4983ZM33.3895 22.2767V4.33265H30.9462V22.2767H33.3895ZM18.0651 13.8855L32.7786 5.39061L31.557 3.27469L16.8435 11.7695L18.0651 13.8855ZM18.51 13.4423L18.5122 13.4385L16.3965 12.2165L16.3942 12.2204L18.51 13.4423ZM16.839 13.888L16.8412 13.8893L18.063 11.7734L18.0607 11.7721L16.839 13.888ZM18.0589 13.8891L18.0611 13.8878L16.8386 11.7724L16.8364 11.7737L18.0589 13.8891ZM16.3876 13.4385L16.3898 13.4423L18.5055 12.2204L18.5033 12.2165L16.3876 13.4385ZM2.1211 5.39061L16.8346 13.8855L18.0562 11.7695L3.34272 3.2747L2.1211 5.39061Z" fill="#fff" mask="url(#path-1-inside-1)"/>
</svg>
