<svg width="64" height="64" viewBox="0 0 64 64" fill="none" xmlns="http://www.w3.org/2000/svg">
<path d="M42.0318 31.9534H39.8522C40.0743 32.5616 40.1957 33.218 40.1957 33.9022V44.1398C40.1957 44.4251 40.1461 44.6989 40.0557 44.9535H43.6591C45.0051 44.9535 46.1002 43.8584 46.1002 42.5125V36.0218C46.1002 33.7785 44.2751 31.9534 42.0318 31.9534Z" fill="black"/>
<path d="M23.8212 33.9023C23.8212 33.2181 23.9426 32.5617 24.1648 31.9534H21.9852C19.7418 31.9534 17.9167 33.7785 17.9167 36.0219V42.5126C17.9167 43.8585 19.0118 44.9536 20.3578 44.9536H23.9612C23.8709 44.6989 23.8212 44.4251 23.8212 44.1399V33.9023Z" fill="black"/>
<path d="M34.4999 29.8339H29.517C27.2737 29.8339 25.4486 31.659 25.4486 33.9023V44.1399C25.4486 44.5893 25.8129 44.9536 26.2623 44.9536H37.7547C38.2041 44.9536 38.5684 44.5893 38.5684 44.1399V33.9023C38.5684 31.659 36.7433 29.8339 34.4999 29.8339Z" fill="black"/>
<path d="M32.0085 18.0463C29.3106 18.0463 27.1157 20.2412 27.1157 22.9391C27.1157 24.7691 28.1258 26.3674 29.6174 27.2065C30.3249 27.6045 31.1406 27.8319 32.0085 27.8319C32.8765 27.8319 33.6922 27.6045 34.3997 27.2065C35.8914 26.3674 36.9013 24.7691 36.9013 22.9391C36.9013 20.2412 34.7064 18.0463 32.0085 18.0463Z" fill="black"/>
<path d="M23.4169 22.6068C21.3992 22.6068 19.7577 24.2482 19.7577 26.2659C19.7577 28.2836 21.3992 29.9251 23.4169 29.9251C23.9287 29.9251 24.4161 29.8191 24.8588 29.6285C25.6243 29.299 26.2554 28.7156 26.646 27.9848C26.9201 27.472 27.076 26.8869 27.076 26.2659C27.076 24.2483 25.4346 22.6068 23.4169 22.6068Z" fill="black"/>
<path d="M40.6002 22.6068C38.5825 22.6068 36.941 24.2482 36.941 26.2659C36.941 26.887 37.097 27.472 37.3711 27.9848C37.7617 28.7156 38.3928 29.299 39.1583 29.6285C39.601 29.8191 40.0884 29.9251 40.6002 29.9251C42.6179 29.9251 44.2594 28.2836 44.2594 26.2659C44.2594 24.2482 42.6179 22.6068 40.6002 22.6068Z" fill="black"/>
</svg>
