<svg width="64" height="64" viewBox="0 0 64 64" fill="none" xmlns="http://www.w3.org/2000/svg">
<path fill-rule="evenodd" clip-rule="evenodd" d="M31.4967 38.1656C33.1438 36.8759 34.9354 35.7462 36.8508 34.8073L28.7532 25.4921C27.751 26.9716 26.6169 28.3632 25.3603 29.6524C25.1822 29.8351 24.1552 30.7851 23.9504 30.9632L20.4134 34.0383C19.288 35.0161 19.1683 36.7278 20.1461 37.8531L23.4127 41.61C24.3885 42.7333 26.0983 42.8577 27.2275 41.8772L27.3282 41.7897L30.6901 45.5629C31.1001 46.0512 31.7174 46.2471 32.2928 46.1456C32.7605 46.0632 32.9628 45.8908 33.6475 45.3074C33.78 45.1946 33.9305 45.0663 34.1045 44.9203C34.8235 44.317 34.9176 43.2411 34.3144 42.5226L30.9003 38.6841L31.4967 38.1656ZM29.8778 23.6994L38.7824 33.9431C40.2104 33.3634 41.6982 32.8868 43.2384 32.5246C44.7466 32.1701 45.3357 30.3392 44.3196 29.1724L35.3733 18.8799C34.3562 17.7103 32.463 18.0426 31.9031 19.4843C31.335 20.9453 30.6578 22.3535 29.8778 23.6994ZM39.7267 19.9609C42.0068 20.3188 43.7631 22.3178 43.8073 24.6427C43.8212 25.3743 42.9195 25.7281 42.4393 25.176C41.2899 23.8542 40.153 22.5462 39.0201 21.2427C38.5443 20.6951 39.01 19.8484 39.7267 19.9609Z" fill="black"/>
</svg>
